<?xml version="1.0"?>
<svg xmlns="http://www.w3.org/2000/svg" height="512px" viewBox="0 0 64 64" width="512px" class=""><g><g id="Check_List-Paper-Configuration-Gear-Setting" data-name="Check List-Paper-Configuration-Gear-Setting"><path d="m47 11v46a3.983 3.983 0 0 1 -1.69 3.26 3.819 3.819 0 0 1 -1.34.62 3.906 3.906 0 0 1 -.97.12h-36a4 4 0 0 1 -4-4v-50a4 4 0 0 1 4-4h32v6a2.006 2.006 0 0 0 2 2z" fill="#e6e7e8" data-original="#E6E7E8" class="active-path" style="fill:#FFFFFF" data-old_color="#e6e7e8"/><path d="m47 33v24a3.983 3.983 0 0 1 -1.69 3.26l-.15-.61a11.92 11.92 0 0 1 -3.39-1.41l-2.96 1.78-2.83-2.83 1.78-2.96a11.92 11.92 0 0 1 -1.41-3.39l-3.35-.84v-4l3.35-.84a11.92 11.92 0 0 1 1.41-3.39l-1.78-2.96 2.83-2.83 2.96 1.78a11.92 11.92 0 0 1 3.39-1.41l.84-3.35z" fill="#d8d7da" data-original="#D8D7DA"/><path d="m57.65 48.84a11.92 11.92 0 0 1 -1.41 3.39l1.78 2.96-2.83 2.83-2.96-1.78a11.92 11.92 0 0 1 -3.39 1.41l-.84 3.35h-4l-.03-.12-.81-3.23a11.92 11.92 0 0 1 -3.39-1.41l-2.96 1.78-2.83-2.83 1.78-2.96a11.92 11.92 0 0 1 -1.41-3.39l-3.35-.84v-4l3.35-.84a11.92 11.92 0 0 1 1.41-3.39l-1.78-2.96 2.83-2.83 2.96 1.78a11.92 11.92 0 0 1 3.39-1.41l.84-3.35h4l.84 3.35a11.92 11.92 0 0 1 3.39 1.41l2.96-1.78 2.83 2.83-1.78 2.96a11.92 11.92 0 0 1 1.41 3.39l3.35.84v4z" fill="#ffa733" data-original="#FFA733" class="" style="fill:#FFB229" data-old_color="#ffa733"/><path d="m54 46a8.032 8.032 0 0 1 -7 7.94 8.262 8.262 0 0 1 -1 .06 8 8 0 0 1 0-16 8.262 8.262 0 0 1 1 .06 8 8 0 0 1 7 7.94z" fill="#ffd422" data-original="#FFD422" class="" style="fill:#2CE89D" data-old_color="#ffd422"/><path d="m49.54 51.46a5 5 0 0 0 -2.54-1.36 4.712 4.712 0 0 0 -1-.1 4.963 4.963 0 0 0 -4.41 2.67 7.931 7.931 0 0 0 4.41 1.33 8.262 8.262 0 0 0 1-.06 7.968 7.968 0 0 0 3.42-1.28 4.949 4.949 0 0 0 -.88-1.2z" fill="#3d9ae2" data-original="#3D9AE2" class="" style="fill:#2CCBE8" data-old_color="#3d9ae2"/><path d="m47.83 46a1.968 1.968 0 0 1 -.83-.18 2.017 2.017 0 0 1 -.59-.41l-.41-.41-.41.41a2.006 2.006 0 0 1 -1.42.59h-1.17v1a3 3 0 0 0 3 3 2.772 2.772 0 0 0 1-.18 2.838 2.838 0 0 0 1.12-.7 2.993 2.993 0 0 0 .88-2.12v-1z" fill="#ffc477" data-original="#FFC477"/><path d="m47 42.18a2.772 2.772 0 0 0 -1-.18 3 3 0 0 0 -3 3v1h1.17a2.006 2.006 0 0 0 1.42-.59l.41-.41.41.41a2.017 2.017 0 0 0 .59.41 1.968 1.968 0 0 0 .83.18h1.17v-1a2.968 2.968 0 0 0 -2-2.82z" fill="#57565c" data-original="#57565C" class=""/><path d="m47 11h-6a2.006 2.006 0 0 1 -2-2v-6z" fill="#bcbec0" data-original="#BCBEC0" class="" style="fill:#30FF72" data-old_color="#bcbec0"/><g fill="#ffd422"><path d="m16.28 20.72a4 4 0 1 1 -3.28-1.72 4.009 4.009 0 0 1 3.28 1.72z" data-original="#FFD422" class="" style="fill:#2CE89D" data-old_color="#FFD422"/><path d="m16.28 34.72a4 4 0 1 1 -3.28-1.72 4.009 4.009 0 0 1 3.28 1.72z" data-original="#FFD422" class="" style="fill:#2CE89D" data-old_color="#FFD422"/><path d="m16.28 48.72a4 4 0 1 1 -3.28-1.72 4.009 4.009 0 0 1 3.28 1.72z" data-original="#FFD422" class="" style="fill:#2CE89D" data-old_color="#FFD422"/></g><path d="m8 8h2v2h-2z" fill="#bcbec0" data-original="#BCBEC0" class="" style="fill:#30FF72" data-old_color="#bcbec0"/><path d="m12 8h6v2h-6z" fill="#bcbec0" data-original="#BCBEC0" class="" style="fill:#30FF72" data-old_color="#bcbec0"/><path d="m8 12h10v2h-10z" fill="#bcbec0" data-original="#BCBEC0" class="" style="fill:#30FF72" data-old_color="#bcbec0"/><path d="m11.964 20.5h7.071v2h-7.071z" fill="#ff5023" transform="matrix(.707 -.707 .707 .707 -10.663 17.257)" data-original="#FF5023" class="" style="fill:#E3E9ED" data-old_color="#ff5023"/><path d="m22 20h12v2h-12z" fill="#bcbec0" data-original="#BCBEC0" class="" style="fill:#30FF72" data-old_color="#bcbec0"/><path d="m22 24h12v2h-12z" fill="#bcbec0" data-original="#BCBEC0" class="" style="fill:#30FF72" data-old_color="#bcbec0"/><path d="m11.964 34.5h7.071v2h-7.071z" fill="#ff5023" transform="matrix(.707 -.707 .707 .707 -20.562 21.358)" data-original="#FF5023" class="" style="fill:#E3E9ED" data-old_color="#ff5023"/><path d="m22 34h10v2h-10z" fill="#bcbec0" data-original="#BCBEC0" class="" style="fill:#30FF72" data-old_color="#bcbec0"/><path d="m22 38h8v2h-8z" fill="#bcbec0" data-original="#BCBEC0" class="" style="fill:#30FF72" data-old_color="#bcbec0"/><path d="m11.964 48.5h7.071v2h-7.071z" fill="#ff5023" transform="matrix(.707 -.707 .707 .707 -30.462 25.458)" data-original="#FF5023" class="" style="fill:#E3E9ED" data-old_color="#ff5023"/><path d="m22 48h6v2h-6z" fill="#bcbec0" data-original="#BCBEC0" class="" style="fill:#30FF72" data-old_color="#bcbec0"/><path d="m22 52h8v2h-8z" fill="#bcbec0" data-original="#BCBEC0" class="" style="fill:#30FF72" data-old_color="#bcbec0"/></g></g> </svg>
